# xmcd CD database file
#
# Track frame offsets:
#	150
#	12574
#	25646
#	38936
#	53225
#	66376
#	78912
#	91541
#	102646
#	114978
#	127297
#	141699
#	154433
#	167312
#	179617
#	190189
#	201027
#	212336
#	226156
#	237788
#	249316
#	262473
#	274361
#	287818
#	301607
#	315560
#	325898
#	336523
#
# Disc length: 4668 seconds
#
# Revision: 0
# Processed by: cddbd v1.5.1PL2 Copyright (c) Steve Scherf et al.
# Submitted via: CDex 1.51
#
DISCID=9d123a1c
DTITLE=Slim Whitman - Indian Love Call (Living Era)
DYEAR=2006
DGENRE=Country
TTITLE0=I'm Casting My Lasso Towards the Sky
TTITLE1=Birmingham Jail
TTITLE2=Love Song of the Waterfall
TTITLE3=Indian Love Call
TTITLE4=China Doll
TTITLE5=Amateur in Love
TTITLE6=By the Waters of Minnetonka
TTITLE7=Keep it a Secret
TTITLE8=My Heart is Broken in Three
TTITLE9=There's a Rainbow in Every Teardrop
TTITLE10=Danny Boy
TTITLE11=North Wind
TTITLE12=Secret Love
TTITLE13=There's a Loveknot in My Lariat
TTITLE14=Rose Marie
TTITLE15=Beautiful Dreamer
TTITLE16=The Singing Hills
TTITLE17=You Have My Heart
TTITLE18=When I Grow too Old to Dream
TTITLE19=The Cattle Call
TTITLE20=Blue Eyes Crying in the Rain
TTITLE21=When My Blue Moon Turns to Gold Again
TTITLE22=That Silver Haired Daddy of Mine
TTITLE23=Roll on Silvery Moon
TTITLE24=Haunted, Hungary Heart 
TTITLE25=I'll Never Stop Loving You
TTITLE26=Song of the Wild
TTITLE27=Tumbling Tumbleweeds
EXTD=YEAR: 2006
EXTT0=
EXTT1=
EXTT2=
EXTT3=
EXTT4=
EXTT5=
EXTT6=
EXTT7=
EXTT8=
EXTT9=
EXTT10=
EXTT11=
EXTT12=
EXTT13=
EXTT14=
EXTT15=
EXTT16=
EXTT17=
EXTT18=
EXTT19=
EXTT20=
EXTT21=
EXTT22=
EXTT23=
EXTT24=
EXTT25=
EXTT26=
EXTT27=
PLAYORDER=
